<svg t="1656572570690" class="icon" viewBox="0 0 1024 1024" version="1.1" xmlns="http://www.w3.org/2000/svg" p-id="8889" width="200" height="200"><path d="M755.12832 552.5504c-14.80704 0-26.8288 12.01152-26.8288 26.8288l0 263.85408L200.62208 843.23328 200.62208 315.53536l263.8336 0c14.80704 0 26.8288-12.02176 26.8288-26.8288s-12.01152-26.8288-26.8288-26.8288L173.78304 261.87776c-14.80704 0-26.8288 12.01152-26.8288 26.8288l0 581.34528c0 14.82752 12.02176 26.83904 26.8288 26.83904l581.34528 0c14.81728 0 26.83904-12.01152 26.8288-26.83904L781.95712 579.3792C781.95712 564.56192 769.95584 552.5504 755.12832 552.5504z" p-id="8890"></path><path d="M889.68192 238.98112l-83.61984-83.53792c-10.46528-10.46528-27.45344-10.46528-37.91872 0l-75.5712 75.66336L400.44544 523.2128c-2.41664 2.41664-4.38272 5.28384-5.72416 8.40704l-62.5152 146.05312c-4.38272 10.10688-2.05824 21.82144 5.64224 29.51168 5.19168 5.19168 11.9808 7.87456 18.96448 7.87456 3.57376 0 7.15776-0.7168 10.63936-2.14016l146.05312-62.5152c3.1232-1.34144 6.00064-3.30752 8.40704-5.72416l292.10624-292.10624 75.66336-75.5712C900.1472 266.43456 900.1472 249.4464 889.68192 238.98112zM407.86944 637.24544l24.4224-56.8832 32.47104 32.47104L407.86944 637.24544zM496.59904 594.13504l-45.60896-45.60896 263.12704-263.13728 45.6192 45.60896L496.59904 594.13504zM785.02912 305.69472l-45.60896-45.60896 47.6672-47.6672 45.60896 45.52704L785.02912 305.69472z" p-id="8891"></path></svg>